<svg width="1920" height="1324" viewBox="0 0 1920 1324" fill="none" xmlns="http://www.w3.org/2000/svg">
<g clip-path="url(#clip0_5:4)">
<g filter="url(#filter0_f_5:4)">
<rect x="1287" y="381" width="182" height="182" rx="51" stroke="#2A4B55" stroke-width="2"/>
</g>
<circle cx="1010" cy="197" r="7" fill="#152529"/>
<circle cx="1102" cy="197" r="7" fill="#152529"/>
<circle cx="1194" cy="197" r="7" fill="#152529"/>
<circle cx="1286" cy="197" r="7" fill="#152529"/>
<circle cx="1378" cy="197" r="7" fill="#152529"/>
<circle cx="1470" cy="197" r="7" fill="#152529"/>
<circle cx="1562" cy="197" r="7" fill="#152529"/>
<circle cx="1654" cy="197" r="7" fill="#152529"/>
<circle cx="1010" cy="289" r="7" fill="#152529"/>
<circle cx="1102" cy="289" r="7" fill="#152529"/>
<circle cx="1194" cy="289" r="7" fill="#152529"/>
<circle cx="1286" cy="289" r="7" fill="#152529"/>
<circle cx="1378" cy="289" r="7" fill="#152529"/>
<circle cx="1470" cy="289" r="7" fill="#152529"/>
<circle cx="1562" cy="289" r="7" fill="#152529"/>
<circle cx="1654" cy="289" r="7" fill="#152529"/>
<circle cx="1010" cy="381" r="7" fill="#152529"/>
<circle cx="1102" cy="381" r="7" fill="#152529"/>
<circle cx="1194" cy="381" r="7" fill="#152529"/>
<circle cx="1286" cy="381" r="7" fill="#37636E"/>
<circle cx="1378" cy="381" r="7" fill="#37636E"/>
<circle cx="1470" cy="381" r="7" fill="#37636E"/>
<circle cx="1562" cy="381" r="7" fill="#152529"/>
<circle cx="1654" cy="381" r="7" fill="#152529"/>
<circle cx="1010" cy="473" r="7" fill="#152529"/>
<circle cx="1102" cy="473" r="7" fill="#152529"/>
<circle cx="1194" cy="473" r="7" fill="#152529"/>
<circle cx="1286" cy="473" r="7" fill="#37636E"/>
<circle cx="1378" cy="473" r="7" fill="#152529"/>
<circle cx="1470" cy="473" r="7" fill="#37636E"/>
<circle cx="1562" cy="473" r="7" fill="#152529"/>
<circle cx="1654" cy="473" r="7" fill="#152529"/>
<circle cx="1010" cy="565" r="7" fill="#152529"/>
<circle cx="1102" cy="565" r="7" fill="#152529"/>
<circle cx="1194" cy="565" r="7" fill="#152529"/>
<circle cx="1286" cy="565" r="7" fill="#37636E"/>
<circle cx="1378" cy="565" r="7" fill="#37636E"/>
<circle cx="1470" cy="565" r="7" fill="#37636E"/>
<circle cx="1562" cy="565" r="7" fill="#152529"/>
<circle cx="1654" cy="565" r="7" fill="#152529"/>
<path d="M1256 1126L0 299" stroke="url(#paint0_linear_5:4)" stroke-width="3"/>
<path d="M1430 807L174 -20" stroke="url(#paint1_linear_5:4)" stroke-width="3"/>
<path d="M2079 511L823 -316" stroke="url(#paint2_linear_5:4)" stroke-width="3"/>
<path d="M-6 679L1060 -16" stroke="#335353" stroke-opacity="0.5"/>
<path d="M263 1325L1329 630" stroke="#335353" stroke-opacity="0.5"/>
<circle cx="1563" cy="287" r="38" fill="url(#paint3_linear_5:4)" fill-opacity="0.6"/>
<circle cx="1563" cy="287" r="37" stroke="#8BA0A5" stroke-opacity="0.6" stroke-width="2"/>
<circle cx="1563" cy="287" r="11.5" stroke="#A5B5B8" stroke-opacity="0.6" stroke-width="3"/>
<path d="M1585 326C1585 313.85 1575.15 304 1563 304C1550.85 304 1541 313.85 1541 326" stroke="#627D80" stroke-opacity="0.6" stroke-width="3" stroke-linecap="round"/>
<circle cx="1378" cy="287" r="38" fill="url(#paint4_linear_5:4)" fill-opacity="0.6"/>
<circle cx="1378" cy="287" r="37" stroke="#8BA0A5" stroke-opacity="0.6" stroke-width="2"/>
<circle cx="1378" cy="287" r="11.5" stroke="#A5B5B8" stroke-opacity="0.6" stroke-width="3"/>
<path d="M1400 326C1400 313.85 1390.15 304 1378 304C1365.85 304 1356 313.85 1356 326" stroke="#627D80" stroke-opacity="0.6" stroke-width="3" stroke-linecap="round"/>
<circle cx="1194" cy="287" r="38" fill="url(#paint5_linear_5:4)" fill-opacity="0.6"/>
<circle cx="1194" cy="287" r="37" stroke="#8BA0A5" stroke-opacity="0.6" stroke-width="2"/>
<circle cx="1194" cy="287" r="11.5" stroke="#A5B5B8" stroke-opacity="0.6" stroke-width="3"/>
<path d="M1216 326C1216 313.85 1206.15 304 1194 304C1181.85 304 1172 313.85 1172 326" stroke="#627D80" stroke-opacity="0.6" stroke-width="3" stroke-linecap="round"/>
<circle cx="1563" cy="472" r="38" fill="url(#paint6_linear_5:4)" fill-opacity="0.4"/>
<circle cx="1563" cy="472" r="37" stroke="#8BA0A5" stroke-opacity="0.4" stroke-width="2"/>
<circle cx="1563" cy="472" r="11.5" stroke="url(#paint7_linear_5:4)" stroke-opacity="0.4" stroke-width="3"/>
<path d="M1585 511C1585 498.85 1575.15 489 1563 489C1550.85 489 1541 498.85 1541 511" stroke="#627D80" stroke-opacity="0.4" stroke-width="3" stroke-linecap="round"/>
<circle cx="1194" cy="472" r="38" fill="url(#paint8_linear_5:4)" fill-opacity="0.4"/>
<circle cx="1194" cy="472" r="37" stroke="#8BA0A5" stroke-opacity="0.4" stroke-width="2"/>
<circle cx="1194" cy="472" r="11.5" stroke="url(#paint9_linear_5:4)" stroke-opacity="0.4" stroke-width="3"/>
<path d="M1216 511C1216 498.85 1206.15 489 1194 489C1181.85 489 1172 498.85 1172 511" stroke="#627D80" stroke-opacity="0.4" stroke-width="3" stroke-linecap="round"/>
<circle cx="1563" cy="657" r="38" fill="url(#paint10_linear_5:4)" fill-opacity="0.2"/>
<circle cx="1563" cy="657" r="37" stroke="url(#paint11_linear_5:4)" stroke-opacity="0.2" stroke-width="2"/>
<circle cx="1563" cy="657" r="11.5" stroke="url(#paint12_linear_5:4)" stroke-opacity="0.2" stroke-width="3"/>
<path d="M1585 696C1585 683.85 1575.15 674 1563 674C1550.85 674 1541 683.85 1541 696" stroke="url(#paint13_linear_5:4)" stroke-opacity="0.2" stroke-width="3" stroke-linecap="round"/>
<circle cx="1378" cy="657" r="38" fill="url(#paint14_linear_5:4)" fill-opacity="0.2"/>
<circle cx="1378" cy="657" r="37" stroke="url(#paint15_linear_5:4)" stroke-opacity="0.2" stroke-width="2"/>
<circle cx="1378" cy="657" r="11.5" stroke="url(#paint16_linear_5:4)" stroke-opacity="0.2" stroke-width="3"/>
<path d="M1400 696C1400 683.85 1390.15 674 1378 674C1365.85 674 1356 683.85 1356 696" stroke="url(#paint17_linear_5:4)" stroke-opacity="0.2" stroke-width="3" stroke-linecap="round"/>
<circle cx="1194" cy="657" r="38" fill="url(#paint18_linear_5:4)" fill-opacity="0.2"/>
<circle cx="1194" cy="657" r="37" stroke="url(#paint19_linear_5:4)" stroke-opacity="0.2" stroke-width="2"/>
<circle cx="1194" cy="657" r="11.5" stroke="url(#paint20_linear_5:4)" stroke-opacity="0.2" stroke-width="3"/>
<path d="M1216 696C1216 683.85 1206.15 674 1194 674C1181.85 674 1172 683.85 1172 696" stroke="url(#paint21_linear_5:4)" stroke-opacity="0.2" stroke-width="3" stroke-linecap="round"/>
<rect x="1295" y="389" width="166" height="166" rx="52" fill="#0E1F25"/>
<g style="mix-blend-mode:color-dodge">
<mask id="mask0_5:4" style="mask-type:alpha" maskUnits="userSpaceOnUse" x="1340" y="434" width="76" height="76">
<circle cx="1378" cy="472" r="38" fill="url(#paint22_linear_5:4)" fill-opacity="0.6"/>
<circle cx="1378" cy="472" r="37" stroke="#8BA0A5" stroke-opacity="0.6" stroke-width="2"/>
</mask>
<g mask="url(#mask0_5:4)">
<circle cx="1378" cy="472" r="38" fill="url(#paint23_linear_5:4)" fill-opacity="0.6"/>
<circle cx="1378" cy="472" r="37" stroke="#8BA0A5" stroke-opacity="0.6" stroke-width="2"/>
<path d="M1400 511C1400 498.85 1390.15 489 1378 489C1365.85 489 1356 498.85 1356 511" stroke="#627D80" stroke-opacity="0.8" stroke-width="3" stroke-linecap="round"/>
</g>
<circle cx="1378" cy="472" r="11.5" stroke="#A5B5B8" stroke-opacity="0.8" stroke-width="3"/>
</g>
</g>
<defs>
<filter id="filter0_f_5:4" x="1282" y="376" width="192" height="192" filterUnits="userSpaceOnUse" color-interpolation-filters="sRGB">
<feFlood flood-opacity="0" result="BackgroundImageFix"/>
<feBlend mode="normal" in="SourceGraphic" in2="BackgroundImageFix" result="shape"/>
<feGaussianBlur stdDeviation="2" result="effect1_foregroundBlur_5:4"/>
</filter>
<linearGradient id="paint0_linear_5:4" x1="-35.5" y1="278" x2="955" y2="926.5" gradientUnits="userSpaceOnUse">
<stop stop-color="#335353"/>
<stop offset="1" stop-color="#335353" stop-opacity="0"/>
</linearGradient>
<linearGradient id="paint1_linear_5:4" x1="401.5" y1="100" x2="1225.5" y2="658" gradientUnits="userSpaceOnUse">
<stop stop-color="#335353"/>
<stop offset="0.995936" stop-color="#335353" stop-opacity="0"/>
</linearGradient>
<linearGradient id="paint2_linear_5:4" x1="1050.5" y1="-196" x2="1874.5" y2="362" gradientUnits="userSpaceOnUse">
<stop stop-color="#335353"/>
<stop offset="0.995936" stop-color="#335353" stop-opacity="0"/>
</linearGradient>
<linearGradient id="paint3_linear_5:4" x1="1563" y1="249" x2="1563" y2="325" gradientUnits="userSpaceOnUse">
<stop stop-color="#495D61"/>
<stop offset="1" stop-color="#1C2E31"/>
</linearGradient>
<linearGradient id="paint4_linear_5:4" x1="1378" y1="249" x2="1378" y2="325" gradientUnits="userSpaceOnUse">
<stop stop-color="#495D61"/>
<stop offset="1" stop-color="#1C2E31"/>
</linearGradient>
<linearGradient id="paint5_linear_5:4" x1="1194" y1="249" x2="1194" y2="325" gradientUnits="userSpaceOnUse">
<stop stop-color="#495D61"/>
<stop offset="1" stop-color="#1C2E31"/>
</linearGradient>
<linearGradient id="paint6_linear_5:4" x1="1563" y1="434" x2="1563" y2="510" gradientUnits="userSpaceOnUse">
<stop stop-color="#495D61"/>
<stop offset="1" stop-color="#1C2E31"/>
</linearGradient>
<linearGradient id="paint7_linear_5:4" x1="1563" y1="459" x2="1563" y2="485" gradientUnits="userSpaceOnUse">
<stop stop-color="#A5B5B8"/>
<stop offset="1" stop-color="#A5B5B8" stop-opacity="0"/>
</linearGradient>
<linearGradient id="paint8_linear_5:4" x1="1194" y1="434" x2="1194" y2="510" gradientUnits="userSpaceOnUse">
<stop stop-color="#495D61"/>
<stop offset="1" stop-color="#1C2E31"/>
</linearGradient>
<linearGradient id="paint9_linear_5:4" x1="1194" y1="459" x2="1194" y2="485" gradientUnits="userSpaceOnUse">
<stop stop-color="#A5B5B8"/>
<stop offset="1" stop-color="#A5B5B8" stop-opacity="0"/>
</linearGradient>
<linearGradient id="paint10_linear_5:4" x1="1563" y1="619" x2="1563" y2="695" gradientUnits="userSpaceOnUse">
<stop stop-color="#495D61"/>
<stop offset="1" stop-color="#1C2E31"/>
</linearGradient>
<linearGradient id="paint11_linear_5:4" x1="1563" y1="619" x2="1563" y2="695" gradientUnits="userSpaceOnUse">
<stop stop-color="#8BA0A5"/>
<stop offset="1" stop-color="#8BA0A5" stop-opacity="0"/>
</linearGradient>
<linearGradient id="paint12_linear_5:4" x1="1563" y1="644" x2="1563" y2="670" gradientUnits="userSpaceOnUse">
<stop stop-color="#A5B5B8"/>
<stop offset="1" stop-color="#A5B5B8" stop-opacity="0"/>
</linearGradient>
<linearGradient id="paint13_linear_5:4" x1="1563" y1="674" x2="1563" y2="696" gradientUnits="userSpaceOnUse">
<stop stop-color="#627D80"/>
<stop offset="1" stop-color="#627D80" stop-opacity="0"/>
</linearGradient>
<linearGradient id="paint14_linear_5:4" x1="1378" y1="619" x2="1378" y2="695" gradientUnits="userSpaceOnUse">
<stop stop-color="#495D61"/>
<stop offset="1" stop-color="#1C2E31"/>
</linearGradient>
<linearGradient id="paint15_linear_5:4" x1="1378" y1="619" x2="1378" y2="695" gradientUnits="userSpaceOnUse">
<stop stop-color="#8BA0A5"/>
<stop offset="1" stop-color="#8BA0A5" stop-opacity="0"/>
</linearGradient>
<linearGradient id="paint16_linear_5:4" x1="1378" y1="644" x2="1378" y2="670" gradientUnits="userSpaceOnUse">
<stop stop-color="#A5B5B8"/>
<stop offset="1" stop-color="#A5B5B8" stop-opacity="0"/>
</linearGradient>
<linearGradient id="paint17_linear_5:4" x1="1378" y1="674" x2="1378" y2="696" gradientUnits="userSpaceOnUse">
<stop stop-color="#627D80"/>
<stop offset="1" stop-color="#627D80" stop-opacity="0"/>
</linearGradient>
<linearGradient id="paint18_linear_5:4" x1="1194" y1="619" x2="1194" y2="695" gradientUnits="userSpaceOnUse">
<stop stop-color="#495D61"/>
<stop offset="1" stop-color="#1C2E31"/>
</linearGradient>
<linearGradient id="paint19_linear_5:4" x1="1194" y1="619" x2="1194" y2="695" gradientUnits="userSpaceOnUse">
<stop stop-color="#8BA0A5"/>
<stop offset="1" stop-color="#8BA0A5" stop-opacity="0"/>
</linearGradient>
<linearGradient id="paint20_linear_5:4" x1="1194" y1="644" x2="1194" y2="670" gradientUnits="userSpaceOnUse">
<stop stop-color="#A5B5B8"/>
<stop offset="1" stop-color="#A5B5B8" stop-opacity="0"/>
</linearGradient>
<linearGradient id="paint21_linear_5:4" x1="1194" y1="674" x2="1194" y2="696" gradientUnits="userSpaceOnUse">
<stop stop-color="#627D80"/>
<stop offset="1" stop-color="#627D80" stop-opacity="0"/>
</linearGradient>
<linearGradient id="paint22_linear_5:4" x1="1378" y1="434" x2="1378" y2="510" gradientUnits="userSpaceOnUse">
<stop stop-color="#495D61"/>
<stop offset="1" stop-color="#1C2E31"/>
</linearGradient>
<linearGradient id="paint23_linear_5:4" x1="1378" y1="434" x2="1378" y2="510" gradientUnits="userSpaceOnUse">
<stop stop-color="#495D61"/>
<stop offset="1" stop-color="#1C2E31"/>
</linearGradient>
<clipPath id="clip0_5:4">
<rect width="1920" height="1324" fill="white"/>
</clipPath>
</defs>
</svg>
